{"title":"Sukhishvili.Assa Party.Tbilisi Event Hall.5.02.2011.","uid":6349431,"size":2137142784,"categoryP":"audio","categoryS":"sound_clips","magnet":"?xt=urn:btih:95b2286dee7f22201d913bfc85568c9c1d461a43&amp;dn=Sukhishvili.Assa+Party.Tbilisi+Event+Hall.5.02.2011.&amp;tr=udp%3A%2F%2Ftracker.openbittorrent.com%3A80&amp;tr=udp%3A%2F%2Fopen.demonii.com%3A1337&amp;tr=udp%3A%2F%2Ftracker.coppersurfer.tk%3A6969&amp;tr=udp%3A%2F%2Fexodus.desync.com%3A6969","seeders":0,"leechers":1,"uploader":"GioDorcel","files":-1,"time":1303945587,"description":"Screenlist :\n &lt;a href=&quot;\nhttp://bayimg.com/faHKeaADm&quot; rel=&quot;nofollow&quot; target=&quot;_NEW&quot;&gt;\nhttp://bayimg.com/faHKeaADm&lt;/a&gt;\n\n\n      Format : AVI\n      Format/Info : Audio Video Interleave\n      File size : 1.99 GiB\n      Duration : 1h 9mn\n      Overall bit rate : 4 078 Kbps\n\n     \n      Format : MPEG-4 Visual\n      Format profile : Simple@L3\n      Format settings, BVOP : No\n      Format settings, QPel : No\n      Format settings, GMC : No warppoints\n      Format settings, Matrix : Default (H.263)\n      Codec ID : XVID\n      Codec ID/Hint : XviD\n      Duration : 1h 9mn\n      Bit rate : 3 810 Kbps\n      Width : 720 pixels\n      Height : 576 pixels\n      Display aspect ratio : 5:4\n      Frame rate : 25.000 fps\n      Standard : PAL\n      Color space : YUV\n      Chroma subsampling : 4:2:0\n      Bit depth : 8 bits\n      Scan type : Progressive\n      Bits/(Pixel*Frame) : 0.367\n      Stream size : 1.86 GiB (93%)\n      Writing library : XviD 1.2.1 (UTC 2008-12-04)\n\n    \n      Format : MPEG Audio\n      Format version : Version 1\n      Format profile : Layer 3\n      Mode : Joint stereo\n      Mode extension : MS Stereo\n      Codec ID : 55\n      Codec ID/Hint : MP3\n      Duration : 1h 9mn\n      Bit rate mode : Constant\n      Bit rate : 256 Kbps\n      Channel(s) : 2 channels\n      Sampling rate : 44.1 KHz\n      Stream size : 128 MiB (6%)\n      Alignment : Aligned on interleaves\n      Interleave, duration : 26 ms (0.65 video frame)\n      Writing library : LAME3.98.2","torrent":{"xt":"urn:btih:95b2286dee7f22201d913bfc85568c9c1d461a43","amp;dn":"Sukhishvili.Assa+Party.Tbilisi+Event+Hall.5.02.2011.","amp;tr":["udp%3A%2F%2Ftracker.openbittorrent.com%3A80","udp%3A%2F%2Fopen.demonii.com%3A1337","udp%3A%2F%2Ftracker.coppersurfer.tk%3A6969","udp%3A%2F%2Fexodus.desync.com%3A6969"],"infoHash":"95b2286dee7f22201d913bfc85568c9c1d461a43","infoHashBuffer":{"type":"Buffer","data":[149,178,40,109,238,127,34,32,29,145,59,252,133,86,140,156,29,70,26,67]},"announce":[],"urlList":[]}}